<?xml version="1.0" standalone="no"?>
<!DOCTYPE svg PUBLIC "-//W3C//DTD SVG 20010904//EN"
 "http://www.w3.org/TR/2001/REC-SVG-20010904/DTD/svg10.dtd">
<svg version="1.0" xmlns="http://www.w3.org/2000/svg"
 width="300.000000pt" height="301.000000pt" viewBox="0 0 300.000000 301.000000"
 preserveAspectRatio="xMidYMid meet">
<metadata>
Created by potrace 1.10, written by Peter Selinger 2001-2011
</metadata>
<g transform="translate(0.000000,301.000000) scale(0.100000,-0.100000)"
fill="#000000" stroke="none">
<path d="M28 2993 c-15 -18 -33 -73 -23 -73 5 0 55 76 55 85 0 11 -18 4 -32
-12z"/>
<path d="M121 2973 c-17 -21 -31 -42 -31 -47 0 -5 9 3 20 17 12 15 32 35 47
47 18 14 21 20 10 20 -9 0 -29 -17 -46 -37z"/>
<path d="M211 2963 c-160 -191 -212 -258 -200 -262 14 -4 22 4 124 138 39 51
80 99 93 107 24 16 30 4 8 -18 -7 -8 -17 -25 -21 -38 -4 -14 -27 -60 -51 -102
-23 -43 -41 -78 -38 -78 2 0 -25 -58 -61 -130 -39 -78 -65 -142 -65 -161 0
-29 3 -27 32 32 18 35 38 64 43 64 6 -1 33 58 61 130 27 72 63 153 78 181 15
27 30 58 32 68 2 11 10 24 19 28 8 5 15 14 15 21 0 7 7 24 14 40 15 26 14 27
-14 27 -22 0 -38 -11 -69 -47z"/>
<path d="M389 2968 c-6 -24 -26 -95 -44 -158 -18 -63 -47 -177 -65 -253 -18
-76 -38 -144 -46 -151 -20 -21 -3 -28 19 -9 19 18 19 17 13 -17 -33 -164 -102
-405 -148 -515 -38 -91 -58 -187 -58 -276 0 -65 4 -88 14 -92 10 -4 15 9 20
55 4 33 22 108 40 167 65 209 116 430 161 701 49 291 70 384 85 375 18 -11
-10 -280 -37 -368 -11 -34 -12 -51 -5 -60 11 -13 8 -48 -18 -217 -17 -106 -30
-238 -35 -345 -16 -371 -15 -363 -55 -475 -21 -58 -49 -132 -64 -164 -14 -33
-24 -61 -22 -64 7 -7 51 86 82 172 20 56 30 74 34 61 9 -26 16 -9 25 54 4 30
14 61 21 69 17 16 18 48 3 58 -8 5 -9 30 -4 83 4 42 8 146 10 231 4 188 14
298 26 306 5 3 10 -19 10 -48 2 -52 4 -47 15 40 3 23 9 40 14 37 4 -3 8 5 8
18 0 124 22 787 28 805 4 13 2 22 -4 22 -6 0 -16 -19 -23 -42z m-15 -555 c-7
-52 -11 -60 -20 -50 -10 9 6 97 17 97 6 0 8 -18 3 -47z"/>
<path d="M496 2988 c-20 -94 -36 -196 -42 -268 -3 -47 -12 -116 -20 -153 -17
-83 -17 -90 -3 -81 9 5 10 -28 6 -122 -3 -81 -1 -122 4 -109 6 12 7 -73 4
-220 -5 -209 -8 -242 -22 -252 -9 -7 -12 -13 -5 -13 16 0 15 -19 -3 -53 -10
-19 -11 -35 -5 -50 5 -12 9 -17 10 -12 1 6 5 1 10 -10 12 -29 12 -148 0 -140
-12 8 -12 5 0 -69 6 -37 6 -74 0 -101 -5 -22 -11 -79 -14 -126 l-5 -84 10 65
c6 36 13 72 17 80 19 51 23 149 27 763 2 318 8 604 14 665 14 130 31 244 39
257 3 5 15 -31 26 -80 17 -79 19 -122 17 -340 -1 -137 -9 -312 -17 -387 -11
-108 -12 -153 -3 -215 7 -43 11 -86 11 -95 0 -10 4 -18 9 -18 6 0 8 60 4 162
-4 90 -3 159 2 155 15 -15 31 -171 25 -253 -3 -50 -1 -84 5 -87 16 -10 25 157
14 238 -10 73 -25 252 -24 295 2 144 4 193 7 189 2 -2 7 -31 10 -64 4 -33 12
-78 18 -100 9 -33 12 -37 18 -20 4 11 6 25 4 30 -2 6 -15 93 -29 195 -14 102
-29 217 -35 255 -5 39 -12 98 -16 133 -6 60 -7 62 -35 62 -22 0 -30 -6 -33
-22z"/>
<path d="M613 2998 c1 -7 5 -15 8 -18 3 -3 11 -18 17 -35 9 -25 11 -26 11 -8
1 28 17 38 26 15 3 -9 9 -79 12 -154 4 -101 3 -138 -5 -138 -7 0 -12 9 -12 20
0 11 -4 28 -9 38 -5 9 -14 57 -21 106 -15 120 -29 143 -30 49 0 -51 6 -88 21
-125 16 -41 24 -94 33 -235 7 -101 16 -186 21 -190 4 -5 5 67 1 160 -4 106 -2
167 4 167 5 0 12 11 16 25 3 14 10 25 14 25 10 0 57 -141 77 -230 7 -36 18
-137 23 -225 5 -88 21 -268 35 -400 14 -132 29 -278 34 -325 8 -83 8 -82 10
65 0 83 -6 234 -15 335 -9 102 -17 233 -19 291 -4 102 -24 209 -60 309 -15 40
-85 294 -85 306 0 3 10 -1 23 -7 l22 -12 -21 24 c-12 13 -25 35 -29 49 -4 14
-18 49 -31 78 -19 43 -28 52 -49 52 -15 0 -24 -5 -22 -12z"/>
<path d="M771 2922 c0 -50 6 -108 15 -137 47 -157 100 -422 103 -515 2 -75 16
-139 52 -237 10 -30 25 -120 34 -205 24 -233 28 -258 41 -250 9 5 9 40 -2 137
-7 72 -13 153 -13 180 1 61 4 51 45 -142 16 -73 32 -133 36 -133 4 0 8 8 8 18
0 32 -49 296 -65 347 -8 28 -15 65 -15 84 0 55 -31 153 -46 147 -7 -3 -15 4
-17 17 -5 25 -1 -46 8 -138 8 -75 -7 -57 -29 36 -17 73 -32 219 -23 219 4 0
11 -18 17 -40 9 -35 13 -39 25 -27 12 12 10 29 -16 113 -41 136 -71 254 -67
266 5 14 85 -188 103 -262 20 -78 22 -81 40 -73 19 7 19 31 0 77 -8 20 -13 36
-10 36 5 0 -6 21 -105 200 -26 47 -62 128 -80 181 -31 90 -33 98 -17 113 16
16 18 16 35 -1 40 -38 182 -309 242 -462 28 -69 31 -85 19 -91 -8 -5 -23 -16
-34 -24 -19 -15 -19 -15 7 -16 15 0 36 9 48 22 11 12 23 19 26 15 3 -3 22 10
42 29 19 19 38 34 41 34 4 0 33 20 66 45 33 25 66 45 73 45 6 0 12 3 12 8 0 4
21 20 48 36 26 16 57 39 70 50 18 16 25 18 31 7 6 -10 10 -10 13 -1 3 11 27
-13 116 -116 15 -17 64 -72 110 -122 72 -78 132 -155 132 -166 0 -5 -87 -56
-94 -56 -3 0 -17 17 -31 38 -34 51 -79 101 -71 79 5 -16 4 -16 -27 -1 -59 31
-254 13 -320 -31 -35 -22 -75 -73 -89 -112 -7 -18 -16 -33 -21 -33 -5 0 -22
-9 -39 -21 -33 -24 -38 -22 -41 17 -1 20 2 28 12 26 8 -2 27 2 43 9 22 9 28
18 28 41 0 31 -40 88 -69 99 -26 10 -57 -10 -70 -46 -10 -29 -16 -34 -42 -33
-18 1 -35 9 -42 20 -7 10 -19 18 -27 18 -13 -1 -12 -3 2 -13 9 -7 19 -24 21
-38 22 -110 31 -152 58 -279 30 -143 39 -173 39 -133 0 18 -42 256 -66 373
l-7 35 22 -20 c13 -11 29 -33 37 -50 8 -16 12 -22 9 -12 -5 20 8 23 22 5 5 -8
6 -116 1 -268 -4 -140 -4 -257 0 -260 4 -3 38 -50 75 -105 37 -55 101 -148
142 -207 l74 -107 -27 -20 c-26 -20 -26 -20 -4 -21 12 0 22 -4 22 -10 0 -5
-11 -10 -24 -10 -14 0 -28 -4 -31 -10 -3 -5 -1 -10 5 -10 6 0 8 -4 5 -10 -11
-18 22 -10 50 12 23 18 25 22 11 30 -16 9 -23 38 -8 38 4 0 44 -53 89 -119
l83 -118 56 -7 c31 -4 59 -4 62 -1 15 14 -68 142 -178 274 -30 36 -64 84 -75
105 -23 46 -103 120 -202 187 -40 27 -73 56 -73 63 0 7 -9 21 -20 31 -24 22
-25 35 -4 83 16 36 19 45 22 86 3 31 13 11 17 -34 5 -50 32 -97 47 -82 8 8 5
25 -9 59 -20 46 -40 187 -46 316 l-2 57 33 6 c18 4 32 12 32 20 0 8 11 37 25
65 45 89 138 129 293 129 61 0 85 -5 116 -23 50 -28 79 -80 72 -127 -3 -19 -1
-42 4 -50 8 -12 10 -10 10 10 0 21 15 36 80 78 44 29 84 52 90 52 21 0 8 19
-64 101 -217 247 -253 288 -296 336 l-47 51 -126 -94 c-69 -52 -128 -94 -131
-94 -4 0 -6 6 -6 13 0 6 -16 36 -34 66 -19 30 -32 60 -29 67 5 14 -68 137
-106 177 -45 50 -68 54 -29 6 66 -83 96 -134 102 -178 3 -24 22 -73 42 -109
29 -51 34 -66 23 -73 -18 -11 -20 -9 -68 106 -24 55 -62 132 -87 171 -24 40
-44 76 -44 82 0 5 -13 37 -30 70 -16 34 -30 70 -30 81 0 13 -7 21 -16 21 -9 0
-14 -6 -11 -12 74 -192 92 -234 97 -238 4 -3 41 -71 84 -152 55 -105 73 -149
64 -154 -6 -4 -13 -3 -15 2 -9 27 -143 257 -143 246 0 -7 11 -35 25 -62 14
-27 34 -73 46 -101 11 -29 29 -63 40 -78 l20 -25 -23 -18 c-27 -21 -38 -22
-38 -5 0 20 -84 233 -143 362 -30 66 -63 146 -73 178 -10 31 -22 57 -26 57 -8
0 -3 -50 9 -95 10 -36 -28 5 -48 52 -13 30 -24 43 -38 43 -18 0 -20 -7 -20
-88z m399 -683 c0 -26 3 -31 20 -26 16 4 20 0 20 -21 0 -26 -2 -27 -55 -28
-43 -1 -53 1 -45 11 5 6 7 15 3 19 -4 4 3 9 14 12 18 5 21 11 16 35 -4 22 -2
29 11 29 11 0 16 -9 16 -31z m199 -902 c6 -8 8 -16 6 -19 -3 -3 6 -13 19 -22
14 -9 33 -31 42 -49 9 -17 35 -52 58 -77 69 -74 159 -207 150 -222 -8 -13 -43
15 -72 57 -47 71 -107 150 -114 153 -5 2 -8 8 -8 13 0 5 -20 37 -45 71 -25 34
-44 67 -42 73 2 5 -3 15 -12 22 -9 7 -11 13 -5 13 6 0 17 -6 23 -13z"/>
<path d="M1050 3002 c0 -14 59 -113 116 -193 35 -51 194 -229 181 -203 -24 45
-82 120 -100 129 -12 6 -21 17 -19 24 1 7 -26 56 -62 109 -64 97 -116 156
-116 134z"/>
<path d="M1100 3003 c0 -5 50 -78 111 -163 61 -85 122 -174 136 -197 26 -45
49 -58 38 -21 -6 17 -4 20 11 14 11 -3 -3 15 -31 41 -55 53 -221 271 -235 309
-9 22 -30 34 -30 17z"/>
<path d="M1403 2910 c77 -77 98 -105 94 -120 -4 -17 -2 -20 12 -15 13 4 26 -5
44 -27 14 -18 37 -46 51 -62 14 -16 28 -37 31 -47 4 -11 11 -19 17 -19 6 0 31
-21 55 -46 32 -34 43 -41 43 -28 0 23 -9 36 -37 55 -12 9 -49 49 -81 90 -32
41 -72 88 -88 104 -16 17 -68 72 -116 123 -48 50 -96 92 -105 92 -12 0 15 -34
80 -100z"/>
<path d="M1465 2922 c50 -48 118 -116 153 -152 143 -148 161 -165 173 -153 9
9 5 16 -19 30 -18 10 -32 26 -32 35 0 10 -5 15 -13 12 -9 -3 -53 40 -115 110
-112 127 -89 124 47 -7 112 -108 187 -177 193 -177 15 0 -162 182 -264 270
-22 19 -61 54 -86 78 -25 23 -52 42 -61 42 -12 -1 -10 -6 9 -23 37 -32 55 -57
41 -57 -6 0 -31 18 -55 40 -83 77 -60 39 29 -48z"/>
<path d="M1575 2991 c56 -53 188 -161 192 -157 3 3 -33 43 -79 90 -59 60 -92
86 -109 86 -23 0 -23 0 -4 -19z"/>
<path d="M1733 2919 c50 -50 102 -100 115 -112 l22 -22 0 28 c0 22 -7 30 -39
43 -22 9 -41 21 -43 28 -4 15 -127 126 -139 126 -5 0 33 -41 84 -91z"/>
<path d="M1750 2974 c22 -20 43 -34 46 -32 9 10 -48 68 -67 68 -15 0 -10 -8
21 -36z"/>
<path d="M1820 3001 c0 -5 7 -12 16 -15 9 -3 14 -12 11 -20 -3 -8 1 -22 8 -33
13 -17 14 -17 15 0 0 9 5 17 12 17 6 0 -1 14 -17 30 -29 30 -45 38 -45 21z"/>
<path d="M2003 2998 c2 -7 12 -13 22 -13 10 0 20 6 23 13 2 7 -6 12 -23 12
-17 0 -25 -5 -22 -12z"/>
<path d="M2130 2996 c0 -7 7 -19 15 -26 12 -10 16 -9 21 5 4 10 1 21 -7 26
-20 12 -29 11 -29 -5z"/>
<path d="M2265 2996 c-18 -13 -19 -15 -3 -33 9 -10 18 -29 21 -43 2 -14 5 1 6
33 0 31 0 57 -2 57 -2 0 -12 -6 -22 -14z"/>
<path d="M2878 3003 c23 -2 61 -2 85 0 23 2 4 4 -43 4 -47 0 -66 -2 -42 -4z"/>
<path d="M1943 2973 c-18 -7 -16 -23 2 -23 8 0 20 -9 27 -20 17 -26 30 -26 26
1 -3 24 -37 49 -55 42z"/>
<path d="M2057 2963 c-5 -10 61 -72 68 -65 11 12 4 39 -15 55 -21 18 -46 22
-53 10z"/>
<path d="M2872 2958 c-40 -6 -71 -12 -68 -15 8 -9 196 9 196 18 0 11 -29 10
-128 -3z"/>
<path d="M2187 2953 c-12 -12 -7 -21 14 -26 11 -3 23 -15 26 -26 6 -24 23 -18
23 8 0 31 -45 62 -63 44z"/>
<path d="M2805 2905 c-49 -7 -92 -14 -94 -14 -3 -1 -1 -5 5 -10 5 -5 40 -5 79
0 39 4 100 8 138 8 53 1 67 4 67 16 0 19 -63 18 -195 0z"/>
<path d="M36 2869 c-20 -24 -36 -50 -36 -58 0 -10 6 -7 17 9 9 14 27 37 41 52
14 15 23 30 20 33 -3 3 -22 -13 -42 -36z"/>
<path d="M1875 2901 c-10 -18 19 -51 35 -41 11 7 12 14 4 27 -13 21 -30 27
-39 14z"/>
<path d="M2010 2885 c-10 -12 -10 -18 0 -30 12 -14 15 -14 31 1 14 13 16 20 8
31 -15 17 -24 17 -39 -2z"/>
<path d="M2134 2875 c-9 -24 22 -53 38 -37 9 9 10 17 2 29 -15 24 -33 27 -40
8z"/>
<path d="M2266 2871 c-19 -21 -19 -22 2 -42 12 -11 22 -29 22 -41 0 -12 2 -19
5 -16 3 2 1 30 -3 62 l-7 58 -19 -21z"/>
<path d="M1925 2840 c-3 -5 1 -10 9 -10 8 0 26 -15 40 -32 l26 -33 0 27 c0 43
-56 79 -75 48z"/>
<path d="M2055 2831 c-3 -5 4 -12 15 -16 11 -3 25 -15 30 -26 14 -24 30 -25
30 0 0 21 -23 45 -33 34 -4 -3 -7 -1 -7 5 0 14 -26 16 -35 3z"/>
<path d="M221 2775 c-12 -31 -21 -64 -21 -74 0 -35 -32 -128 -79 -231 -27 -58
-54 -127 -61 -155 -7 -27 -23 -90 -36 -140 -34 -131 -29 -136 13 -12 19 59 38
105 41 103 2 -3 -7 -47 -22 -98 -37 -132 -56 -226 -55 -278 l1 -45 13 48 c7
26 18 53 24 60 5 7 21 65 35 128 37 167 59 264 105 454 23 94 46 193 52 220 6
28 16 56 22 63 6 8 6 12 -1 12 -6 0 -20 -25 -31 -55z"/>
<path d="M2186 2821 c-3 -4 6 -13 19 -19 14 -7 25 -18 25 -26 0 -8 5 -18 10
-21 16 -10 11 42 -6 59 -17 17 -40 21 -48 7z"/>
<path d="M1757 2784 c-3 -4 -2 -15 4 -26 8 -15 13 -17 25 -7 11 9 12 15 3 25
-12 15 -22 17 -32 8z"/>
<path d="M1875 2769 c-4 -5 1 -19 11 -30 15 -17 19 -18 32 -5 13 13 13 17 -1
30 -18 19 -33 20 -42 5z"/>
<path d="M2011 2757 c-8 -11 -6 -18 8 -31 16 -15 19 -15 31 -1 10 12 10 18 0
30 -15 19 -24 19 -39 2z"/>
<path d="M2137 2753 c-10 -9 -8 -15 8 -37 12 -15 17 -17 29 -7 12 10 13 16 3
32 -12 19 -28 24 -40 12z"/>
<path d="M2272 2748 c-16 -16 -15 -33 3 -48 8 -7 15 -28 15 -47 0 -21 -6 -36
-15 -39 -8 -4 -15 -12 -15 -19 0 -7 7 -18 15 -25 19 -16 19 -69 0 -90 -14 -15
-13 -19 4 -38 17 -21 38 -31 27 -14 -2 4 -6 80 -7 170 -2 89 -6 162 -9 162 -3
0 -11 -5 -18 -12z"/>
<path d="M2922 2710 c-113 -45 -232 -102 -232 -113 0 -5 6 -7 13 -4 6 3 53 23
102 45 50 22 114 48 143 58 28 10 52 24 52 31 0 7 -1 13 -2 12 -2 0 -36 -13
-76 -29z"/>
<path d="M1829 2713 c16 -28 38 -53 45 -53 13 0 5 38 -12 53 -25 23 -46 23
-33 0z"/>
<path d="M910 2712 c0 -7 11 -30 24 -50 31 -50 117 -220 127 -252 7 -25 7 -25
8 4 1 17 -20 68 -50 124 -63 116 -109 190 -109 174z"/>
<path d="M1936 2711 c-3 -4 6 -13 20 -20 21 -9 25 -16 20 -36 -8 -30 9 -33 24
-5 7 14 7 26 1 39 -15 27 -54 40 -65 22z"/>
<path d="M2065 2701 c-3 -5 4 -12 15 -16 11 -3 26 -18 34 -32 13 -25 13 -26
19 -4 9 36 -49 81 -68 52z"/>
<path d="M2190 2694 c0 -3 11 -15 25 -26 14 -11 25 -26 25 -34 0 -8 5 -12 10
-9 16 10 12 40 -8 58 -18 16 -52 23 -52 11z"/>
<path d="M45 2620 c-20 -40 -35 -74 -32 -76 2 -2 20 28 40 68 20 39 35 73 33
76 -3 2 -21 -28 -41 -68z"/>
<path d="M2890 2646 c-169 -76 -258 -126 -224 -126 23 0 334 146 334 157 0 18
-3 17 -110 -31z"/>
<path d="M1265 2643 c4 -16 8 -37 10 -48 1 -11 3 -22 4 -25 0 -3 12 -7 27 -8
27 -2 26 0 -6 48 -10 14 -15 30 -13 36 2 6 -4 14 -13 18 -14 5 -15 2 -9 -21z"/>
<path d="M1885 2640 c-7 -12 12 -50 26 -50 16 0 22 29 9 45 -14 17 -26 19 -35
5z"/>
<path d="M2017 2626 c-8 -20 20 -43 35 -28 8 8 8 15 -2 27 -16 19 -26 19 -33
1z"/>
<path d="M2145 2620 c-8 -12 3 -50 14 -50 5 0 14 7 21 15 10 12 10 18 0 30
-14 17 -26 19 -35 5z"/>
<path d="M2950 2603 c-19 -9 -30 -18 -23 -20 11 -4 73 23 73 32 0 8 -12 5 -50
-12z"/>
<path d="M1806 2591 c-3 -5 5 -11 17 -15 13 -3 30 -18 37 -33 14 -28 14 -28
18 -5 6 40 -53 84 -72 53z"/>
<path d="M212 2525 c-7 -38 -15 -83 -19 -99 l-6 -29 22 22 c19 19 21 31 19 99
l-3 77 -13 -70z"/>
<path d="M1937 2583 c-4 -3 3 -11 16 -17 12 -6 26 -21 32 -34 13 -29 25 -28
25 1 0 38 -51 73 -73 50z"/>
<path d="M2089 2551 c17 -16 31 -34 31 -41 0 -6 5 -8 10 -5 30 18 -7 75 -49
75 -22 0 -22 -1 8 -29z"/>
<path d="M2211 2547 c15 -12 30 -31 35 -42 7 -18 8 -17 12 8 4 36 -13 57 -47
57 l-26 0 26 -23z"/>
<path d="M513 2485 c0 -33 2 -45 4 -27 2 18 2 45 0 60 -2 15 -4 0 -4 -33z"/>
<path d="M711 2515 c-1 -27 24 -333 45 -545 10 -100 15 -213 12 -290 -2 -69
-1 -141 3 -160 4 -23 7 0 9 70 3 136 17 187 21 75 l2 -80 7 95 c12 148 12 332
0 325 -6 -4 -10 -60 -11 -133 -1 -187 -13 -117 -44 258 -25 295 -41 439 -44
385z"/>
<path d="M1755 2520 c-8 -13 13 -40 31 -40 17 0 18 22 2 38 -15 15 -25 15 -33
2z"/>
<path d="M1884 2509 c-3 -6 3 -20 14 -32 19 -19 22 -19 28 -4 11 29 -26 61
-42 36z"/>
<path d="M2888 2439 c-60 -43 -108 -84 -108 -90 0 -13 5 -10 120 75 52 39 97
71 99 72 1 2 1 7 0 13 -2 5 -52 -26 -111 -70z"/>
<path d="M2022 2497 c-9 -11 -8 -18 8 -32 18 -17 20 -17 26 -1 4 10 0 24 -8
32 -13 13 -16 13 -26 1z"/>
<path d="M2144 2485 c-9 -24 22 -53 38 -37 9 9 10 17 2 29 -15 24 -33 27 -40
8z"/>
<path d="M31 2395 c-17 -41 -31 -83 -30 -92 0 -14 2 -15 6 -3 3 8 18 48 35 88
16 41 27 76 25 78 -2 2 -18 -29 -36 -71z"/>
<path d="M1810 2461 c0 -5 9 -11 20 -14 11 -3 25 -18 32 -34 l12 -28 4 28 c2
16 -2 35 -9 43 -12 15 -59 20 -59 5z"/>
<path d="M1940 2452 c0 -5 11 -14 25 -20 15 -7 25 -20 25 -32 0 -11 5 -20 10
-20 19 0 11 59 -9 70 -24 12 -51 13 -51 2z"/>
<path d="M2977 2446 c-32 -21 -195 -186 -183 -186 14 0 213 187 206 193 -3 3
-13 0 -23 -7z"/>
<path d="M2070 2441 c0 -5 9 -13 20 -16 11 -3 23 -17 26 -31 3 -13 10 -24 15
-24 16 0 9 47 -9 63 -20 18 -52 23 -52 8z"/>
<path d="M2223 2412 c15 -15 27 -35 27 -43 1 -10 4 -9 11 4 14 24 -13 67 -43
67 -21 0 -21 -1 5 -28z"/>
<path d="M2932 2344 c-35 -30 -67 -54 -73 -54 -5 0 -9 -5 -9 -12 0 -6 -8 -21
-17 -32 -10 -11 -2 -7 18 10 19 16 51 40 70 51 31 20 85 80 77 88 -1 1 -31
-22 -66 -51z"/>
<path d="M1890 2372 c0 -5 6 -17 14 -28 12 -15 17 -16 27 -7 10 10 9 15 -1 28
-13 16 -40 21 -40 7z"/>
<path d="M2023 2364 c-8 -21 23 -52 38 -37 8 8 7 17 -3 32 -15 25 -26 27 -35
5z"/>
<path d="M2154 2356 c-4 -11 0 -24 9 -34 15 -14 17 -14 23 2 4 11 0 24 -9 34
-15 14 -17 14 -23 -2z"/>
<path d="M2283 2353 c-18 -6 -16 -28 2 -43 20 -16 19 -69 -1 -91 -15 -17 -15
-20 5 -45 l21 -27 -1 84 c-1 95 -8 128 -26 122z"/>
<path d="M2983 2320 c-8 -22 -8 -30 0 -30 6 0 -17 -29 -52 -64 -35 -35 -62
-69 -59 -76 2 -7 32 18 66 54 54 59 62 72 62 106 0 22 -1 40 -3 40 -1 0 -8
-13 -14 -30z"/>
<path d="M310 2337 c0 -12 -29 -143 -35 -159 -4 -10 -3 -18 2 -18 10 0 46 171
38 179 -3 2 -5 2 -5 -2z"/>
<path d="M1957 2324 c-3 -4 5 -15 18 -26 14 -11 25 -28 25 -39 0 -11 5 -17 10
-14 16 10 11 51 -8 68 -20 18 -34 21 -45 11z"/>
<path d="M2080 2311 c0 -5 7 -11 15 -15 8 -3 21 -20 28 -38 13 -32 14 -32 21
-10 10 29 -17 72 -44 72 -11 0 -20 -4 -20 -9z"/>
<path d="M186 2263 c-26 -80 -57 -205 -52 -210 2 -2 7 4 10 14 46 160 66 236
63 240 -3 2 -12 -17 -21 -44z"/>
<path d="M2223 2289 c15 -11 27 -29 27 -40 0 -10 5 -19 10 -19 16 0 12 47 -6
64 -8 9 -25 16 -37 16 -21 -1 -20 -2 6 -21z"/>
<path d="M2026 2232 c-2 -4 2 -16 10 -27 11 -14 17 -16 26 -7 8 8 8 15 -2 27
-14 16 -26 19 -34 7z"/>
<path d="M2155 2230 c-8 -12 17 -51 30 -47 5 2 11 10 13 18 3 17 -34 43 -43
29z"/>
<path d="M2955 2160 c-22 -22 -35 -40 -29 -40 13 0 79 68 73 75 -3 2 -23 -13
-44 -35z"/>
<path d="M1980 2166 c14 -15 20 -31 16 -41 -4 -11 -2 -15 6 -13 18 6 22 46 8
64 -7 7 -22 14 -33 14 -20 0 -20 -1 3 -24z"/>
<path d="M2087 2183 c-4 -3 2 -12 13 -20 11 -8 20 -25 20 -40 0 -21 2 -24 15
-13 20 17 19 43 -3 63 -20 18 -34 21 -45 10z"/>
<path d="M2215 2170 c-3 -5 1 -10 9 -10 16 0 31 -34 21 -50 -3 -5 1 -10 9 -10
22 0 20 43 -2 63 -21 20 -28 21 -37 7z"/>
<path d="M1392 2139 c-18 -10 -30 -24 -27 -30 5 -7 13 -4 25 6 14 12 34 16 77
15 79 -3 89 -2 77 10 -5 5 -34 11 -64 14 -44 4 -63 1 -88 -15z"/>
<path d="M1658 2143 c-10 -3 -18 -10 -18 -17 0 -8 18 -12 55 -12 41 1 51 4 42
12 -15 14 -56 23 -79 17z"/>
<path d="M1894 2099 c-10 -17 23 -46 38 -31 8 8 8 15 -2 27 -15 18 -26 19 -36
4z"/>
<path d="M2032 2097 c-9 -10 -9 -18 1 -31 12 -16 14 -17 27 -1 11 14 11 18 -2
31 -12 13 -16 13 -26 1z"/>
<path d="M2286 2089 c-19 -19 -19 -19 2 -42 25 -27 29 -69 7 -87 -8 -7 -15
-18 -15 -25 0 -7 7 -18 15 -25 8 -7 15 -25 15 -40 0 -15 -7 -33 -15 -40 -8 -7
-15 -18 -15 -25 0 -7 7 -18 15 -25 20 -17 19 -69 -2 -92 -15 -17 -15 -19 0
-36 23 -25 25 -77 4 -100 -16 -18 -16 -20 3 -37 24 -22 26 -72 3 -97 -15 -16
-15 -20 0 -35 8 -10 17 -29 20 -43 3 -14 3 83 1 215 -3 132 -6 309 -8 393 -2
84 -5 154 -7 156 -2 2 -13 -5 -23 -15z"/>
<path d="M1271 2082 c-5 -9 -7 -48 -4 -86 5 -51 3 -67 -6 -62 -6 4 -11 3 -11
-3 0 -5 4 -12 8 -15 4 -2 7 -41 7 -86 -1 -66 -5 -83 -21 -96 -18 -15 -18 -15
10 -11 23 4 39 -3 70 -29 40 -33 268 -154 289 -154 7 0 -5 9 -26 20 -141 76
-223 124 -230 136 -5 8 -12 12 -18 9 -5 -4 -9 1 -9 9 0 9 -4 16 -9 16 -24 0
-35 79 -34 238 0 72 -1 132 -3 132 -2 0 -8 -8 -13 -18z"/>
<path d="M2154 2089 c-10 -17 23 -46 38 -31 8 8 8 15 -2 27 -15 18 -26 19 -36
4z"/>
<path d="M1391 2069 c-20 -17 -21 -20 -6 -25 10 -4 20 -1 25 6 5 8 19 11 39 7
24 -5 31 -3 31 9 0 12 -7 15 -30 12 -16 -2 -31 -1 -32 3 -2 4 -14 -1 -27 -12z"/>
<path d="M1611 2076 c-5 -4 -5 -22 0 -39 10 -37 29 -59 29 -35 0 9 -4 20 -10
23 -5 3 -9 16 -9 28 1 17 2 18 6 5 6 -23 73 -26 73 -3 0 8 -9 15 -21 15 -11 0
-18 4 -15 9 7 11 -42 9 -53 -3z"/>
<path d="M717 1945 c7 -159 8 -144 -5 -250 -9 -82 -8 -110 3 -59 3 16 10 36
14 44 10 19 4 277 -8 350 -7 40 -8 17 -4 -85z"/>
<path d="M1540 2065 c0 -9 5 -13 10 -10 6 3 10 -3 10 -15 0 -23 -45 -70 -68
-70 -18 0 -82 -69 -82 -88 0 -8 16 6 35 32 38 49 49 55 59 31 6 -18 76 -21 76
-4 0 7 -12 9 -35 5 -45 -9 -49 17 -4 33 28 10 30 13 27 52 -3 40 -28 70 -28
34z"/>
<path d="M1715 2063 c-4 -12 1 -24 15 -35 29 -24 38 -60 34 -149 -3 -87 -14
-114 -76 -181 -35 -38 -52 -49 -93 -57 l-50 -10 65 4 c49 3 67 8 75 21 6 10
22 30 36 45 14 15 30 41 35 59 5 17 12 30 15 28 3 -2 13 3 23 11 15 13 15 15
0 32 -13 14 -15 29 -10 63 4 25 12 48 17 52 6 4 2 14 -10 25 -12 11 -21 28
-21 38 0 11 -7 21 -15 25 -8 3 -15 12 -15 20 0 22 -17 28 -25 9z"/>
<path d="M1833 2048 c9 -7 21 -26 27 -41 11 -30 30 -28 30 3 0 25 -26 50 -53
50 -19 0 -19 -1 -4 -12z"/>
<path d="M1967 2040 c12 -5 24 -21 28 -39 7 -35 25 -32 25 3 0 29 -18 46 -49
45 -25 0 -25 -1 -4 -9z"/>
<path d="M2109 2024 c11 -14 17 -32 14 -40 -3 -8 0 -14 6 -14 18 0 25 29 13
56 -7 14 -20 24 -33 24 l-20 0 20 -26z"/>
<path d="M2227 2043 c-4 -6 0 -16 8 -23 8 -7 15 -24 15 -37 0 -22 2 -24 15
-13 20 17 19 24 -8 56 -14 16 -26 23 -30 17z"/>
<path d="M1640 1974 c0 -6 12 -21 26 -35 15 -13 33 -40 42 -59 8 -19 17 -30
19 -23 2 6 -2 24 -10 40 -17 32 -77 92 -77 77z"/>
<path d="M1900 1971 c0 -21 13 -41 26 -41 17 0 18 22 2 38 -14 14 -28 16 -28
3z"/>
<path d="M2030 1958 c0 -7 5 -20 10 -28 12 -19 35 2 27 24 -7 19 -37 21 -37 4z"/>
<path d="M2160 1961 c0 -21 13 -41 26 -41 17 0 18 22 2 38 -14 14 -28 16 -28
3z"/>
<path d="M1622 1938 c-17 -17 -15 -38 5 -38 9 0 13 3 10 7 -4 3 -2 12 4 19 13
16 -4 27 -19 12z"/>
<path d="M40 1874 c-15 -70 -30 -172 -30 -204 0 -49 17 -3 29 78 7 45 20 96
29 112 14 25 15 32 3 39 -7 5 -10 14 -7 20 4 6 3 11 -3 11 -5 0 -15 -25 -21
-56z"/>
<path d="M378 1890 c-14 -89 -17 -151 -8 -145 13 8 22 81 18 140 l-3 50 -7
-45z"/>
<path d="M1847 1908 c12 -13 23 -32 25 -43 5 -19 5 -19 13 -2 11 27 -10 67
-37 67 l-21 0 20 -22z"/>
<path d="M1980 1900 c11 -11 20 -29 20 -41 0 -11 5 -17 10 -14 14 9 13 48 -2
63 -7 7 -20 12 -30 12 -17 0 -17 -1 2 -20z"/>
<path d="M2109 1894 c12 -15 21 -33 21 -41 0 -8 5 -11 10 -8 14 9 13 48 -2 63
-7 7 -20 12 -31 12 -18 0 -17 -1 2 -26z"/>
<path d="M2227 1913 c-3 -3 0 -12 8 -20 8 -8 15 -26 15 -41 0 -24 1 -25 16
-10 10 10 14 23 9 37 -7 22 -38 44 -48 34z"/>
<path d="M509 1880 c-3 -115 0 -176 8 -147 8 32 23 17 23 -23 0 -22 -4 -40
-10 -40 -9 0 -3 -85 11 -130 12 -41 10 166 -2 260 -12 83 -28 129 -30 80z"/>
<path d="M617 1783 c-3 -54 -4 -99 -2 -101 2 -2 8 11 13 29 6 22 8 -30 4 -151
-3 -142 -1 -194 9 -226 13 -36 14 -17 13 195 -1 145 -6 258 -13 294 -7 31 -14
57 -15 57 -2 0 -6 -44 -9 -97z"/>
<path d="M1452 1862 c-9 -6 -4 -16 18 -37 27 -26 38 -29 102 -30 64 -2 75 1
96 22 18 18 22 27 13 36 -13 13 -210 21 -229 9z m139 -12 c45 0 59 -4 59 -14
0 -8 -9 -17 -20 -21 -24 -8 -116 -4 -131 6 -18 10 -2 42 17 35 9 -3 42 -6 75
-6z"/>
<path d="M1892 1828 c-13 -13 2 -38 24 -38 20 0 27 19 14 35 -15 18 -22 19
-38 3z"/>
<path d="M2032 1828 c-7 -7 -12 -17 -12 -24 0 -19 27 -24 41 -8 17 21 -10 51
-29 32z"/>
<path d="M2154 1815 c-4 -9 -2 -21 4 -27 15 -15 44 -1 40 19 -4 23 -36 29 -44
8z"/>
<path d="M1849 1769 c15 -14 20 -27 15 -41 -4 -15 -2 -19 7 -16 35 12 10 78
-29 78 -13 0 -11 -4 7 -21z"/>
<path d="M2082 1768 c-29 -29 -2 -72 40 -66 29 4 35 34 12 59 -20 22 -35 24
-52 7z"/>
<path d="M1988 1762 c-10 -2 -18 -10 -18 -17 0 -7 -5 -15 -12 -17 -17 -6 0
-28 22 -28 23 0 40 28 31 50 -3 9 -14 14 -23 12z"/>
<path d="M2203 1754 c-10 -26 11 -49 43 -49 21 0 30 6 33 20 3 16 1 17 -11 7
-17 -14 -28 -6 -28 20 0 22 -28 24 -37 2z"/>
<path d="M360 1645 c0 -37 -4 -65 -10 -65 -5 0 -10 -5 -10 -11 0 -5 5 -7 10
-4 18 11 10 -185 -15 -360 l-5 -40 15 40 c8 22 18 47 21 55 4 8 9 113 11 233
4 157 2 217 -6 217 -7 0 -11 -24 -11 -65z"/>
<path d="M1773 1699 c-15 -15 -3 -51 14 -45 8 3 17 6 19 6 9 0 3 22 -10 35 -9
9 -17 10 -23 4z"/>
<path d="M1894 1689 c-10 -17 23 -46 38 -31 8 8 8 15 -2 27 -15 18 -26 19 -36
4z"/>
<path d="M2032 1687 c-10 -11 -9 -17 3 -27 24 -20 45 4 24 26 -14 13 -17 13
-27 1z"/>
<path d="M2162 1687 c-9 -11 -8 -18 8 -32 18 -17 20 -17 26 -1 4 10 0 24 -8
32 -13 13 -16 13 -26 1z"/>
<path d="M493 1660 c4 -19 12 -77 18 -127 6 -51 16 -93 21 -93 6 0 8 10 5 23
-3 12 -13 67 -22 122 -9 54 -18 101 -22 105 -3 3 -3 -11 0 -30z"/>
<path d="M733 1610 c-6 -41 -8 -94 -6 -118 4 -32 1 -48 -12 -62 -14 -15 -16
-28 -11 -57 4 -21 9 -54 10 -73 1 -19 6 -53 11 -74 6 -29 5 -37 -4 -32 -7 5
-10 13 -8 19 2 7 -2 17 -9 22 -8 6 -16 44 -20 93 -4 45 -11 85 -16 88 -5 3 -6
-26 -3 -70 4 -43 2 -76 -3 -76 -15 0 -8 -156 9 -176 11 -13 11 -18 2 -21 -25
-9 -7 -193 19 -209 11 -7 10 1 -6 121 -4 28 -3 32 2 15 7 -21 10 -15 17 35 4
33 8 77 8 98 1 20 4 37 8 37 13 0 28 60 23 92 -3 18 -1 83 5 143 6 69 6 111 0
113 -12 5 -12 53 0 85 6 14 6 38 2 54 -6 23 -9 16 -18 -47z m-39 -392 c9 -34
7 -88 -3 -88 -8 0 -21 55 -21 93 0 25 17 21 24 -5z"/>
<path d="M670 1592 c0 -71 20 -176 31 -165 5 5 2 51 -6 102 -8 52 -12 98 -9
102 2 4 0 10 -6 14 -6 4 -10 -15 -10 -53z"/>
<path d="M1830 1639 c-13 -9 -13 -10 0 -8 29 3 40 -1 40 -16 0 -18 -31 -20
-48 -3 -9 9 -12 7 -12 -9 0 -32 26 -48 55 -35 27 13 34 49 13 70 -15 15 -28
15 -48 1z"/>
<path d="M1734 1625 c3 -9 -3 -20 -14 -27 -11 -7 -20 -16 -20 -20 0 -14 37 -9
50 7 13 15 5 55 -12 55 -5 0 -8 -7 -4 -15z"/>
<path d="M1950 1621 c-14 -27 3 -61 30 -61 27 0 33 16 18 47 -17 34 -34 39
-48 14z"/>
<path d="M2087 1633 c-11 -11 -8 -48 5 -61 31 -31 73 2 57 46 -8 21 -47 31
-62 15z m41 -30 c-5 -25 -28 -28 -28 -4 0 12 6 21 16 21 9 0 14 -7 12 -17z"/>
<path d="M2210 1621 c-7 -15 -5 -24 8 -41 23 -29 62 -20 62 14 0 44 -50 63
-70 27z"/>
<path d="M1470 1571 c30 -27 57 -47 60 -45 5 6 -34 41 -85 75 -16 11 -5 -2 25
-30z"/>
<path d="M1680 1611 c0 -5 -12 -24 -26 -41 -33 -38 -25 -51 10 -17 22 22 36
67 21 67 -3 0 -5 -4 -5 -9z"/>
<path d="M586 1564 c-3 -9 -6 -23 -5 -32 0 -12 2 -13 6 -3 5 11 7 11 14 0 6
-10 9 -4 9 19 0 34 -14 43 -24 16z"/>
<path d="M1764 1549 c-3 -6 0 -17 8 -25 13 -13 16 -13 27 0 7 8 10 20 6 26 -8
13 -32 13 -41 -1z"/>
<path d="M1900 1550 c-13 -8 -13 -11 2 -26 14 -14 20 -15 33 -4 12 10 13 16 4
26 -13 16 -19 17 -39 4z"/>
<path d="M2036 1551 c-7 -11 3 -41 13 -41 18 0 30 24 20 37 -13 15 -26 17 -33
4z"/>
<path d="M2164 1549 c-10 -17 23 -46 38 -31 8 8 8 15 -2 27 -15 18 -26 19 -36
4z"/>
<path d="M1705 1483 c2 -34 9 -71 15 -83 6 -11 8 -25 4 -31 -4 -6 -2 -14 3
-18 6 -3 13 -19 17 -36 l7 -30 -21 25 c-11 14 -20 32 -20 40 0 9 -21 39 -46
68 -25 28 -43 56 -39 62 9 15 36 12 57 -7 20 -18 25 -4 8 28 -10 18 -50 27
-50 12 0 -5 -14 -9 -30 -10 -17 -1 -30 2 -30 7 0 5 8 7 18 3 13 -4 14 -3 6 6
-8 9 -17 9 -37 0 l-26 -12 75 -86 c41 -47 89 -115 107 -151 17 -36 35 -67 40
-68 4 -2 5 -7 2 -11 -2 -4 0 -23 5 -42 13 -45 41 -251 36 -257 -3 -2 -13 6
-23 17 -20 24 -43 28 -43 6 0 -8 5 -15 12 -15 31 0 82 -57 119 -134 47 -99 49
-124 7 -171 -30 -35 -33 -36 -97 -35 -36 1 -106 1 -156 1 -121 -1 -159 8 -163
38 -4 23 -2 23 60 17 38 -3 89 0 128 8 63 12 61 13 -95 11 -88 -2 -168 2 -178
7 -13 7 -18 17 -14 33 2 14 -1 26 -9 29 -16 6 -19 52 -4 61 6 4 66 10 133 15
110 8 187 23 176 35 -3 2 -22 0 -44 -5 -65 -15 -152 -12 -159 5 -6 18 2 45 15
45 18 0 8 21 -48 102 -31 46 -57 84 -58 85 -1 2 -16 -2 -34 -7 -25 -7 -39 -5
-57 7 -32 20 -26 35 17 46 19 5 39 13 44 19 7 7 6 9 -1 5 -7 -4 -66 74 -145
189 -74 107 -139 202 -144 210 -9 13 -26 0 -99 -72 -89 -89 -152 -182 -163
-238 -3 -17 -17 -56 -32 -86 -23 -48 -26 -67 -25 -150 1 -68 8 -118 25 -175
22 -74 24 -94 20 -270 -1 -104 -7 -210 -11 -235 -13 -70 0 -290 17 -290 11 0
13 25 12 127 -1 71 3 210 8 310 10 185 1 311 -27 393 -13 41 -22 220 -11 220
5 0 11 16 14 35 3 19 15 46 25 60 11 14 23 45 27 71 5 34 10 44 21 40 10 -4
14 3 14 29 0 36 8 43 27 24 9 -9 10 -6 6 11 -7 26 15 44 33 29 9 -7 11 -5 7 9
-3 11 5 30 19 45 l23 26 85 -53 c65 -40 85 -57 84 -74 0 -11 3 -19 8 -16 4 3
8 0 8 -6 0 -6 11 -23 25 -38 71 -76 91 -152 44 -167 -19 -6 -17 -10 21 -37 22
-17 55 -32 72 -33 21 -1 34 -9 39 -22 4 -10 14 -25 24 -33 26 -22 45 -65 42
-99 -1 -17 -4 -31 -6 -31 -3 0 -31 21 -63 46 -32 25 -58 41 -58 36 0 -6 24
-27 53 -48 73 -52 77 -57 43 -51 -21 3 -36 -2 -57 -21 -31 -28 -35 -46 -18
-89 25 -63 33 -73 70 -87 20 -8 44 -24 52 -36 19 -28 111 -42 252 -39 111 3
150 -7 157 -38 2 -10 10 -9 33 3 51 26 75 16 98 -44 26 -69 31 -62 8 13 l-19
60 -71 5 c-70 5 -71 5 -51 22 11 10 24 18 29 18 5 0 21 14 36 31 14 17 29 29
32 25 4 -3 4 -6 0 -6 -3 0 -1 -14 5 -31 7 -20 14 -27 21 -20 6 6 1 24 -16 54
-15 25 -28 60 -31 78 -6 47 -38 118 -70 156 -16 19 -22 34 -16 38 6 3 8 11 5
16 -4 5 4 5 19 -1 29 -11 67 1 103 33 16 15 25 16 41 8 14 -8 24 -7 38 4 11 8
30 15 44 15 21 0 29 8 42 45 21 56 14 60 -8 5 -17 -42 -40 -55 -31 -17 3 12 9
40 12 62 4 22 20 68 37 103 28 56 30 65 18 90 l-14 27 -7 -35 -6 -35 -2 35 c0
19 -5 49 -10 66 -9 30 -8 31 13 20 26 -13 86 -73 86 -85 0 -5 25 -39 55 -76
30 -36 55 -73 55 -81 0 -8 5 -14 11 -14 6 0 8 -7 5 -16 -5 -12 -2 -15 10 -10
9 3 30 -5 49 -20 38 -29 69 -119 45 -134 -9 -6 -7 -9 7 -14 17 -5 19 -14 15
-69 -2 -34 -8 -75 -13 -92 -36 -107 -68 -265 -69 -338 0 -10 -4 -16 -8 -13 -5
3 -9 -10 -10 -29 -2 -43 -24 -87 -71 -142 -60 -71 -97 -119 -80 -106 23 18 28
8 23 -48 -3 -37 -1 -49 10 -49 14 0 26 48 26 106 0 25 11 44 49 82 54 55 74
102 91 219 7 43 16 96 22 118 5 22 15 63 20 90 6 28 17 67 25 88 24 67 27 146
8 217 -10 36 -20 78 -23 93 -3 22 -14 33 -48 48 -24 10 -44 22 -44 27 0 5 -28
44 -63 88 -35 43 -74 98 -87 121 -19 34 -34 46 -79 64 -31 12 -63 28 -72 36
-8 7 -24 13 -34 13 -21 0 -145 36 -163 48 -7 5 -14 19 -15 31 -1 16 -7 21 -22
19 -40 -6 -18 -32 70 -84 138 -81 165 -102 182 -142 13 -30 13 -46 4 -92 -18
-83 -29 -141 -36 -182 -5 -36 -6 -36 -38 -27 -51 14 -65 11 -106 -26 l-39 -36
-7 68 c-18 196 -40 282 -95 380 -17 30 -41 82 -54 116 l-24 62 3 -62z m-670
-34 c-4 -5 0 -9 8 -9 16 0 53 -37 45 -46 -6 -5 -62 20 -86 39 -10 7 -8 12 5
22 19 14 37 10 28 -6z m794 -333 c6 -33 6 -45 -2 -37 -5 5 -13 31 -17 56 -9
60 7 44 19 -19z"/>
<path d="M491 1425 c-2 -160 -13 -325 -23 -319 -4 3 -9 42 -9 87 l-2 82 -8
-70 c-5 -38 -6 -81 -2 -95 3 -14 7 -74 9 -133 2 -104 13 -162 15 -81 3 156 6
194 18 208 7 8 10 24 6 36 -5 14 -2 20 9 20 11 0 16 -10 17 -27 l1 -28 10 29
c8 22 7 30 -3 37 -12 8 -12 10 0 18 10 6 12 21 8 52 -37 284 -45 316 -46 184z
m19 -215 c0 -16 -4 -30 -10 -30 -5 0 -10 14 -10 30 0 17 5 30 10 30 6 0 10
-13 10 -30z"/>
<path d="M1963 1503 c-17 -6 -16 -31 1 -49 19 -18 32 -18 39 1 7 18 -24 55
-40 48z"/>
<path d="M2092 1498 c-27 -27 -6 -68 35 -68 29 0 39 23 25 56 -12 26 -40 32
-60 12z"/>
<path d="M2228 1499 c-35 -20 -15 -69 28 -69 29 0 38 27 19 56 -17 27 -22 28
-47 13z"/>
<path d="M787 1405 c3 -44 7 -82 9 -84 7 -8 2 104 -7 134 -5 18 -6 -1 -2 -50z"/>
<path d="M1440 1456 c0 -7 96 -65 133 -80 69 -28 37 -1 -48 41 -47 23 -85 40
-85 39z"/>
<path d="M2174 1417 c-7 -20 3 -37 22 -37 18 0 18 24 -1 40 -12 10 -16 9 -21
-3z"/>
<path d="M1826 1399 c19 -22 81 -52 96 -47 6 2 -17 18 -51 34 -41 21 -56 25
-45 13z"/>
<path d="M2230 1361 c0 -5 10 -11 21 -14 16 -4 20 -11 16 -27 -3 -14 -1 -20 6
-17 17 5 21 35 7 52 -14 16 -50 20 -50 6z"/>
<path d="M2307 1283 c-18 -24 -18 -25 0 -38 16 -12 18 -11 21 6 2 10 2 28 0
38 -3 17 -5 17 -21 -6z"/>
<path d="M616 1261 c-6 -42 0 -71 16 -71 6 0 5 6 -2 15 -9 11 -10 25 -2 55 5
22 6 40 2 40 -4 0 -10 -18 -14 -39z"/>
<path d="M232 1153 c-7 -60 -12 -139 -13 -178 0 -38 -4 -91 -8 -117 -6 -37 -5
-48 6 -48 10 0 13 18 13 70 0 38 5 137 11 220 6 83 9 153 7 156 -3 2 -10 -44
-16 -103z"/>
<path d="M995 1206 c43 -37 68 -51 63 -35 -2 7 -24 24 -49 37 l-44 24 30 -26z"/>
<path d="M551 1090 c-8 -18 -19 -29 -26 -26 -7 2 -15 -4 -18 -15 -5 -17 -3
-18 9 -8 14 11 15 5 8 -52 -3 -35 -13 -79 -20 -98 -9 -21 -11 -37 -5 -41 6 -3
7 -20 1 -45 -5 -22 -7 -41 -5 -44 7 -6 26 51 24 73 -2 37 1 46 17 46 14 0 16
-9 12 -55 -3 -30 -1 -55 4 -55 4 0 8 6 8 14 0 10 7 12 23 8 21 -5 21 -4 6 14
-22 25 -31 78 -16 93 8 8 8 11 -2 11 -8 0 -11 6 -7 16 4 12 2 15 -9 10 -18 -7
-20 15 -3 32 9 9 9 12 0 12 -16 0 -11 72 6 86 8 5 12 20 10 33 -3 20 -4 20
-17 -9z"/>
<path d="M400 1067 c0 -23 7 -52 15 -64 10 -14 12 -24 5 -28 -5 -3 -10 -1 -10
6 0 27 -10 0 -23 -66 -9 -42 -12 -88 -8 -115 l7 -45 8 52 c4 28 14 54 21 57
18 7 32 133 16 158 -14 22 -14 48 -1 48 14 0 1 27 -16 34 -11 4 -14 -4 -14
-37z"/>
<path d="M605 928 c3 -24 9 -59 12 -78 4 -19 5 -43 4 -54 -2 -10 2 -15 7 -12
6 3 9 18 7 33 -13 110 -19 144 -27 149 -5 3 -6 -14 -3 -38z"/>
<path d="M1515 876 c-12 -9 -16 -19 -11 -32 7 -19 8 -19 22 1 8 10 27 25 42
31 l27 12 -31 1 c-16 1 -39 -5 -49 -13z"/>
<path d="M655 837 c2 -47 10 -66 21 -55 3 4 -1 28 -9 55 l-14 48 2 -48z"/>
<path d="M695 805 c3 -27 9 -53 15 -59 11 -11 2 58 -12 89 -6 13 -7 3 -3 -30z"/>
<path d="M2986 768 c3 -40 8 -75 10 -77 2 -2 4 30 4 72 0 48 -4 77 -11 77 -7
0 -8 -24 -3 -72z"/>
<path d="M1747 780 c7 -25 19 -34 28 -20 7 11 -11 40 -25 40 -5 0 -6 -9 -3
-20z"/>
<path d="M635 759 c-5 -6 -1 -16 8 -21 12 -6 15 -17 10 -39 -5 -24 -3 -28 11
-23 16 6 23 24 8 24 -4 0 -7 14 -7 32 0 32 -18 48 -30 27z"/>
<path d="M577 753 c-4 -3 -7 -25 -6 -47 l1 -41 9 44 c9 45 8 56 -4 44z"/>
<path d="M415 738 c-38 -3 -95 -9 -125 -12 -30 -3 -77 -9 -105 -11 -123 -14
-185 -27 -185 -41 0 -7 6 -11 12 -9 7 2 67 9 133 16 66 6 131 12 145 14 14 1
61 6 105 10 44 4 82 9 84 11 2 2 13 -3 23 -13 14 -12 18 -31 18 -79 l0 -63
-260 5 c-239 5 -296 0 -244 -20 21 -8 216 -8 385 1 l134 6 3 92 3 93 -28 3
c-15 2 -59 1 -98 -3z"/>
<path d="M1485 711 c-106 -6 -108 -6 -54 -14 34 -6 90 -5 144 2 92 11 127 22
59 19 -21 -1 -88 -4 -149 -7z"/>
<path d="M632 648 c-10 -13 -10 -17 3 -22 8 -3 15 -15 15 -26 0 -11 7 -20 15
-20 12 0 13 4 6 19 -6 10 -7 21 -4 25 3 3 1 6 -5 6 -6 0 -12 7 -14 17 -3 14
-4 14 -16 1z"/>
<path d="M587 633 c-13 -12 -7 -60 8 -73 22 -18 31 -4 10 16 -10 11 -14 25
-11 40 7 25 4 29 -7 17z"/>
<path d="M543 506 c-9 -5 -46 -6 -83 -3 -37 3 -71 2 -76 -3 -5 -5 -27 -11 -49
-13 -22 -3 42 -3 142 0 223 5 309 22 140 26 -32 1 -65 -2 -74 -7z"/>
<path d="M108 473 c17 -2 47 -2 65 0 17 2 3 4 -33 4 -36 0 -50 -2 -32 -4z"/>
<path d="M1600 113 c19 -8 38 -20 42 -27 5 -7 8 -5 8 6 0 9 -13 21 -31 27 -47
16 -60 12 -19 -6z"/>
</g>
</svg>
